<?xml version="1.0" encoding="utf-8"?>
<!-- Generator: Adobe Illustrator 16.0.0, SVG Export Plug-In . SVG Version: 6.00 Build 0)  -->
<!DOCTYPE svg PUBLIC "-//W3C//DTD SVG 1.1//EN" "http://www.w3.org/Graphics/SVG/1.1/DTD/svg11.dtd">
<svg version="1.1" id="Layer_1" xmlns="http://www.w3.org/2000/svg" xmlns:xlink="http://www.w3.org/1999/xlink" x="0px" y="0px"
	 width="185.46px" height="39.02px" viewBox="0 0 185.46 39.02" enable-background="new 0 0 185.46 39.02" xml:space="preserve">
<g>
	<path fill="#252B33" d="M72.833,3.905H59.469c-2.184,0-3.548,0.401-4.089,1.204c-0.313,0.489-0.472,1.6-0.472,3.328
		c0,0.909,0.411,1.615,1.232,2.123c0.681,0.4,1.79,0.603,3.328,0.603h5.528c2.358,0,4.245,0.472,5.661,1.416
		c1.414,0.941,2.122,2.271,2.122,3.981v4.142c0,1.8-0.726,3.18-2.175,4.142c-1.451,0.96-3.434,1.44-5.948,1.44h-14.91v-3.825H63.11
		c2.219,0,3.6-0.438,4.141-1.313c0.244-0.453,0.368-1.633,0.368-3.537c0-1.78-1.452-2.674-4.352-2.674h-5.529
		c-2.289,0-4.167-0.436-5.634-1.311c-1.606-0.96-2.411-2.271-2.411-3.931V5.607c0-1.834,0.874-3.294,2.622-4.377
		c1.222-0.769,2.995-1.15,5.318-1.15h15.199L72.833,3.905L72.833,3.905z"/>
	<path fill="#252B33" d="M89.446,10.166h-5.844v16.117h-4.613V0h4.613v6.867h5.844V10.166z"/>
	<path fill="#252B33" d="M106.296,9.696c-3.563,0-5.635,0.068-6.211,0.209c-1.225,0.366-1.834,1.249-1.834,2.646V26.18H93.48V11.634
		c0-3.545,2.489-5.317,7.468-5.317h5.349V9.696z"/>
	<path fill="#252B33" d="M132.919,21.409c0,1.677-0.752,2.96-2.254,3.852c-1.064,0.683-2.672,1.022-4.819,1.022h-7.995
		c-2.443,0-4.275-0.438-5.488-1.311c-1.213-0.874-1.82-2.063-1.82-3.563v-9.826c0-1.712,0.771-3.04,2.307-3.982
		c1.115-0.684,2.783-1.021,5.004-1.021h7.995c2.216,0,3.843,0.34,4.873,1.021c1.467,0.892,2.2,2.219,2.2,3.982v9.826H132.919z
		 M128.309,20.492V12.5c0-0.908-0.358-1.572-1.074-1.992c-0.575-0.401-1.468-0.604-2.675-0.604h-5.477
		c-1.261,0-2.191,0.2-2.805,0.604c-0.752,0.42-1.128,1.084-1.128,1.992v7.939c0,0.855,0.376,1.493,1.128,1.912
		c0.576,0.365,1.396,0.551,2.463,0.551h6.133c1.03,0,1.815-0.186,2.358-0.551C127.949,21.934,128.309,21.313,128.309,20.492z"/>
	<path fill="#252B33" d="M143.4,26.283h-4.609V0h4.609V26.283z M159.988,26.283H154.3l-9.826-8.727
		c-0.539-0.454-0.813-0.893-0.813-1.312c0-0.454,0.305-0.961,0.918-1.521l9.274-8.099h5.528l-10.771,9.617L159.988,26.283z"/>
	<path fill="#252B33" d="M185.46,14.359l-17.662,5.217v0.653c0,1.03,0.394,1.781,1.179,2.255c0.543,0.279,1.478,0.419,2.806,0.419
		h13.625v3.381h-14.49c-2.5,0-4.342-0.377-5.528-1.128c-1.505-0.892-2.252-2.306-2.252-4.244v-9.328c0-3.338,2.452-5.006,7.36-5.006
		h8.099c4.577,0,6.864,1.772,6.864,5.318V14.359L185.46,14.359z M180.744,12.447v-0.288c0-1.503-1.224-2.254-3.67-2.254h-5.082
		c-2.832,0-4.246,0.85-4.246,2.542V16.3L180.744,12.447z"/>
</g>
<g>
	<path fill="#818F9E" d="M129.265,38.919h-1.23v-6.202h1.23V38.919z"/>
	<path fill="#818F9E" d="M137.64,38.177c0,0.235-0.084,0.43-0.253,0.581c-0.185,0.175-0.435,0.262-0.748,0.262
		c-0.293,0-0.521-0.066-0.681-0.2c-0.069-0.057-0.192-0.225-0.371-0.5l-2.862-4.357v4.973h-1.175V33.64
		c0-0.604,0.332-0.903,1.002-0.903c0.305,0,0.535,0.063,0.691,0.192c0.086,0.067,0.215,0.234,0.383,0.5l2.84,4.354v-4.99h1.174
		V38.177L137.64,38.177z"/>
	<path fill="#818F9E" d="M145.431,36.284h-4.268v2.635h-1.23v-4.917c0-0.398,0.189-0.724,0.568-0.971
		c0.305-0.188,0.756-0.283,1.354-0.283h3.575v0.901h-3.241c-0.686,0-1.025,0.212-1.025,0.638v1.105h4.269L145.431,36.284
		L145.431,36.284z"/>
	<path fill="#818F9E" d="M153.83,37.515c0,0.937-0.674,1.403-2.021,1.403h-1.858c-0.652,0-1.141-0.104-1.462-0.31
		c-0.387-0.248-0.579-0.607-0.579-1.083V34.15c0-0.47,0.195-0.834,0.594-1.093c0.313-0.216,0.795-0.322,1.447-0.322h1.873
		c1.34,0,2.01,0.473,2.01,1.415v3.365H153.83z M152.619,37.291V34.41c0-0.288-0.086-0.488-0.255-0.603s-0.448-0.17-0.835-0.17
		h-1.291c-0.396,0-0.68,0.057-0.849,0.17c-0.168,0.112-0.253,0.313-0.253,0.603v2.856c0,0.256,0.093,0.451,0.277,0.588
		c0.152,0.106,0.428,0.16,0.822,0.16h1.291c0.383,0,0.656-0.054,0.83-0.16C152.533,37.748,152.619,37.561,152.619,37.291z"/>
	<path fill="#818F9E" d="M160.964,33.619h-2.104v5.3h-1.229v-5.3h-2.09v-0.902h5.424V33.619L160.964,33.619z"/>
	<path fill="#818F9E" d="M167.898,36.279h-4.012v1.044c0,0.463,0.357,0.692,1.076,0.692h3.178v0.902h-3.512
		c-0.606,0-1.078-0.104-1.416-0.314c-0.373-0.235-0.56-0.566-0.56-0.995v-3.481c0-0.429,0.166-0.766,0.494-1.012
		c0.331-0.244,0.787-0.366,1.368-0.366h3.623v0.901h-3.19c-0.706,0-1.063,0.228-1.063,0.682v1.058h4.013L167.898,36.279
		L167.898,36.279z"/>
	<path fill="#818F9E" d="M176.214,33.632h-3.24c-0.354,0-0.607,0.048-0.762,0.145c-0.187,0.126-0.277,0.305-0.277,0.53v2.925
		c0,0.293,0.083,0.497,0.248,0.61c0.164,0.116,0.449,0.175,0.854,0.175h3.166v0.902h-3.623c-0.598,0-1.061-0.122-1.387-0.368
		c-0.324-0.243-0.486-0.586-0.486-1.022V34.11c0-0.512,0.174-0.876,0.52-1.096c0.297-0.188,0.779-0.283,1.454-0.283h3.534V33.632
		L176.214,33.632z"/>
	<path fill="#818F9E" d="M184.721,38.919h-1.226v-2.641h-3.699v2.641h-1.229v-6.185h1.229v2.652h3.699v-2.652h1.226V38.919z"/>
</g>
<g>
	<path fill="#FF455C" d="M41.277,0.009H9.13c-1.525,0-2.759,1.236-2.759,2.762c0,1.524,1.233,2.758,2.759,2.758h3.791
		c1.48,0.051,2.67,1.26,2.67,2.75l0,0c0,1.524-1.236,2.762-2.76,2.762H2.76C1.236,11.04,0,12.275,0,13.799
		c0,1.523,1.235,2.762,2.76,2.762h25.807c1.523,0,2.759-1.235,2.759-2.762c0-1.522-1.235-2.759-2.759-2.759h-1.97
		c-1.523,0-2.76-1.234-2.76-2.762c0-1.49,1.189-2.699,2.67-2.75h14.771c1.524,0,2.76-1.233,2.76-2.759S42.802,0.009,41.277,0.009z"
		/>
	<path fill="#FF455C" d="M41.277,26.281H17.584c-1.523,0-2.759-1.234-2.759-2.76l0,0c0-1.522,1.235-2.76,2.759-2.76h23.693
		c1.524,0,2.76,1.235,2.76,2.76l0,0C44.037,25.047,42.802,26.281,41.277,26.281z"/>
	<path fill="#FF455C" d="M41.277,16.559h-5.374c-1.524,0-2.76-1.236-2.76-2.762l0,0c0-1.522,1.235-2.759,2.76-2.759h5.374
		c1.524,0,2.76,1.234,2.76,2.759l0,0C44.037,15.322,42.802,16.559,41.277,16.559z"/>
</g>
</svg>
